<?xml version="1.0" encoding="UTF-8" standalone="no"?>
<svg
   xmlns:dc="http://purl.org/dc/elements/1.1/"
   xmlns:cc="http://creativecommons.org/ns#"
   xmlns:rdf="http://www.w3.org/1999/02/22-rdf-syntax-ns#"
   xmlns:svg="http://www.w3.org/2000/svg"
   xmlns="http://www.w3.org/2000/svg"
   viewBox="0 0 793.70667 891.05865"
   height="891.05865"
   width="793.70667"
   xml:space="preserve"
   id="svg2"
   version="1.1"><metadata
     id="metadata8"><rdf:RDF><cc:Work
         rdf:about=""><dc:format>image/svg+xml</dc:format><dc:type
           rdf:resource="http://purl.org/dc/dcmitype/StillImage" /></cc:Work></rdf:RDF></metadata><defs
     id="defs6"><clipPath
       id="clipPath18"
       clipPathUnits="userSpaceOnUse"><path
         id="path16"
         d="M 0,668.294 H 595.28 V 0 H 0 Z" /></clipPath></defs><g
     transform="matrix(1.3333333,0,0,-1.3333333,0,891.05867)"
     id="g10"><g
       id="g12"><g
         clip-path="url(#clipPath18)"
         id="g14"><g
           transform="translate(239.6875,446.8594)"
           id="g20"><path
             id="path22"
             style="fill:#c69b19;fill-opacity:1;fill-rule:evenodd;stroke:none"
             d="m 0,0 c 0,-0.931 -0.027,-1.817 0.004,-2.702 0.497,-13.699 1.033,-27.397 1.492,-41.096 0.379,-11.26 0.643,-22.52 3.054,-33.598 8.56,-39.335 30.161,-69.294 64.621,-90.041 1.072,-0.647 1.881,-0.644 2.961,-0.006 8.189,4.831 15.878,10.348 22.848,16.81 27.129,25.154 41.866,56.267 44.069,93.151 1.115,18.665 1.538,37.371 2.317,56.057 0.052,1.231 -0.305,1.641 -1.519,1.844 -23.696,3.953 -46.194,11.477 -67.401,22.787 -1.189,0.634 -2.074,0.768 -3.317,0.1 C 51.352,13.751 32.573,6.891 12.854,2.61 8.618,1.69 4.357,0.882 0,0 m -9.169,7.685 c 3.933,0.64 7.784,1.216 11.617,1.9 23.477,4.184 45.677,11.966 66.443,23.734 1.3,0.738 2.262,0.8 3.608,0.037 21.447,-12.168 44.403,-20.078 68.699,-24.156 2.585,-0.433 5.179,-0.819 7.778,-1.146 1.143,-0.144 1.628,-0.488 1.574,-1.795 -0.776,-18.623 -1.687,-37.243 -2.167,-55.874 -0.571,-22.089 -4.706,-43.304 -14.409,-63.267 -13.725,-28.235 -34.415,-49.83 -62.008,-64.822 -0.96,-0.522 -1.66,-0.507 -2.603,0.015 -38.887,21.523 -63.335,53.914 -73.26,97.251 -2.384,10.411 -2.993,21.009 -3.367,31.634 -0.629,17.797 -1.271,35.593 -1.901,53.389 -0.034,0.957 -0.004,1.914 -0.004,3.1" /></g><g
           transform="translate(366.8076,463.2959)"
           id="g24"><path
             id="path26"
             style="fill:#231f20;fill-opacity:1;fill-rule:evenodd;stroke:none"
             d="m 0,0 c 2.982,2.861 5.978,5.711 8.944,8.59 2.983,2.896 5.936,5.823 9.039,8.872 -3.809,3.782 -7.419,7.395 -11.078,10.956 -0.422,0.411 -1.105,0.58 -1.695,0.785 -3.078,1.067 -5.01,3.961 -4.597,6.932 0.445,3.199 3.037,5.623 6.211,5.809 3.018,0.177 5.746,-1.954 6.664,-5.037 0.274,-0.921 0.762,-1.882 1.421,-2.563 4.138,-4.272 8.35,-8.47 12.237,-12.391 1.515,1.305 2.882,2.387 4.128,3.592 0.668,0.647 1.03,1.615 1.704,2.253 2.137,2.021 4.398,3.913 6.523,5.947 0.855,0.819 1.373,1.995 2.233,2.81 1.996,1.888 4.193,3.569 6.144,5.501 1.857,1.839 3.506,3.891 5.246,5.848 0.255,0.287 0.455,0.703 0.774,0.84 2.248,0.955 2.506,2.817 2.785,4.986 0.65,5.088 5.316,8.491 10.465,7.971 5.304,-0.533 8.948,-4.806 8.759,-10.271 -0.17,-4.932 -4.34,-9.043 -9.364,-9.067 -1.356,-0.007 -2.375,-0.176 -2.827,-1.592 -0.037,-0.118 -0.112,-0.239 -0.201,-0.324 -2.188,-2.06 -4.383,-4.111 -6.566,-6.177 -0.403,-0.383 -0.778,-0.801 -1.124,-1.238 -0.317,-0.399 -0.506,-0.921 -0.87,-1.259 -2.115,-1.956 -4.286,-3.851 -6.389,-5.82 -0.538,-0.504 -0.825,-1.271 -1.355,-1.787 -2.158,-2.1 -4.362,-4.151 -6.557,-6.213 -0.272,-0.255 -0.633,-0.423 -0.876,-0.699 -1.186,-1.358 -2.347,-2.737 -3.621,-4.233 4.184,-4.171 8.614,-8.614 13.09,-13.005 0.407,-0.399 1.109,-0.556 1.705,-0.691 2.997,-0.679 5.084,-3.27 5.078,-6.372 -0.006,-3.115 -2.145,-5.775 -5.095,-6.338 -3.202,-0.608 -6.06,0.971 -7.399,3.817 -0.682,1.447 -1.595,2.861 -2.687,4.023 -2.934,3.117 -6.02,6.09 -9.327,9.402 C 29.043,1.29 26.691,-1.219 24.237,-3.624 23.724,-4.127 22.775,-4.59 22.119,-4.484 14.832,-3.322 7.563,-2.045 0.289,-0.797 0.192,-0.532 0.097,-0.267 0,0" /></g><g
           transform="translate(217.9297,476.3154)"
           id="g28"><path
             id="path30"
             style="fill:#231f20;fill-opacity:1;fill-rule:evenodd;stroke:none"
             d="m 0,0 c -1.276,1.498 -2.362,2.957 -3.636,4.226 -1.811,1.803 -3.762,3.468 -5.656,5.19 -0.093,0.085 -0.229,0.126 -0.314,0.217 -2.012,2.148 -4.016,4.305 -6.035,6.449 -0.38,0.405 -0.789,0.788 -1.221,1.137 -0.346,0.279 -0.819,0.424 -1.113,0.742 -2.004,2.16 -3.937,4.387 -5.977,6.511 -0.731,0.76 -2.027,1.12 -2.486,1.972 -1.314,2.443 -3.355,2.746 -5.851,3.16 -5.004,0.828 -8.15,5.865 -7.406,10.935 0.714,4.866 5.317,8.539 10.256,8.183 5.259,-0.38 9.153,-4.44 9.169,-9.737 0.004,-1.169 0.141,-1.967 1.33,-2.344 0.235,-0.075 0.465,-0.239 0.634,-0.42 2.055,-2.2 4.074,-4.432 6.16,-6.6 0.598,-0.622 1.47,-0.98 2.063,-1.605 2.07,-2.181 4.043,-4.455 6.12,-6.629 0.64,-0.67 1.598,-1.039 2.233,-1.712 2.019,-2.14 3.952,-4.361 5.925,-6.543 0.21,-0.234 0.461,-0.431 0.699,-0.638 1.305,-1.139 2.611,-2.277 4.067,-3.546 4.209,4.223 8.691,8.697 13.127,13.216 0.353,0.36 0.421,1.027 0.56,1.566 0.831,3.211 3.648,5.397 6.723,5.192 3.183,-0.211 5.756,-2.647 6.177,-5.846 C 35.939,20.1 33.991,17.271 30.915,16.152 30.057,15.84 29.196,15.324 28.545,14.688 25.15,11.383 21.822,8.009 18.314,4.503 c 2.944,-2.98 5.824,-5.947 8.763,-8.855 2.951,-2.919 5.961,-5.779 8.945,-8.664 l -0.231,-0.609 c -4.591,-0.916 -9.175,-1.875 -13.776,-2.733 -2.576,-0.481 -5.171,-0.883 -7.776,-1.132 -0.751,-0.072 -1.759,0.303 -2.315,0.828 -2.467,2.328 -4.812,4.784 -7.486,7.481 -1.604,-1.669 -3.126,-3.278 -4.675,-4.86 -1.48,-1.511 -3.076,-2.916 -4.45,-4.515 -1.048,-1.217 -2.006,-2.579 -2.69,-4.025 -1.349,-2.855 -4.198,-4.432 -7.395,-3.823 -2.956,0.562 -5.094,3.219 -5.101,6.336 -0.007,3.103 2.08,5.695 5.079,6.374 0.596,0.134 1.298,0.292 1.704,0.69 C -8.61,-8.611 -4.181,-4.168 0,0" /></g><g
           transform="translate(370.4219,319.3076)"
           id="g32"><path
             id="path34"
             style="fill:#231f20;fill-opacity:1;fill-rule:evenodd;stroke:none"
             d="m 0,0 c 3.096,5.947 6.003,11.534 8.936,17.17 3.636,-3.604 7.283,-7.178 10.881,-10.797 8.442,-8.489 16.869,-16.992 25.277,-25.514 0.935,-0.949 1.818,-1.985 2.543,-3.101 7.146,-10.987 14.254,-22 21.623,-33.396 -0.762,0.388 -1.176,0.555 -1.545,0.793 -11.541,7.461 -23.108,14.883 -34.584,22.443 -1.893,1.246 -3.429,3.055 -5.059,4.674 C 19.029,-18.753 10.01,-9.756 0.976,-0.773 0.66,-0.459 0.274,-0.216 0,0" /></g><g
           transform="translate(181.4668,264.0664)"
           id="g36"><path
             id="path38"
             style="fill:#231f20;fill-opacity:1;fill-rule:evenodd;stroke:none"
             d="m 0,0 c 7.751,11.979 15.5,23.963 23.263,35.937 0.309,0.478 0.705,0.911 1.108,1.317 11.396,11.438 22.795,22.873 34.198,34.304 0.346,0.347 0.735,0.653 1.126,0.998 2.964,-5.694 5.873,-11.28 8.762,-16.83 C 63.318,50.532 58.155,45.282 52.958,40.067 48.391,35.484 43.707,31.014 39.221,26.352 36.217,23.229 32.803,20.724 29.171,18.409 20,12.567 10.9,6.613 1.771,0.705 1.252,0.37 0.721,0.055 0.195,-0.271 0.13,-0.181 0.065,-0.091 0,0" /></g><g
           transform="translate(248.9541,439.208)"
           id="g40"><path
             id="path42"
             style="fill:#ffffff;fill-opacity:1;fill-rule:evenodd;stroke:none"
             d="m 0,0 c 0,-0.693 -0.023,-1.459 0.003,-2.224 0.406,-11.779 0.802,-23.559 1.233,-35.337 0.381,-10.361 0.701,-20.722 2.949,-30.914 7.622,-34.565 26.271,-61.491 55.853,-80.888 1.001,-0.658 1.758,-0.769 2.727,-0.008 6.234,4.895 12.956,9.274 18.665,14.718 25.77,24.567 38.755,54.889 39.689,90.449 0.212,8.066 0.685,16.126 1.005,24.188 0.267,6.711 0.484,13.422 0.725,20.138 -0.215,0.113 -0.371,0.226 -0.544,0.28 -0.366,0.117 -0.736,0.223 -1.112,0.299 -20.278,4.096 -39.652,10.811 -58.114,20.137 -1.16,0.585 -2.007,0.594 -3.168,0.004 C 47.979,14.785 35.628,9.743 22.768,6.035 15.288,3.879 7.719,2.035 0,0 m -9.224,7.646 c 4.359,0.881 8.619,1.69 12.854,2.61 19.719,4.279 38.497,11.14 56.273,20.694 1.244,0.669 2.13,0.535 3.319,-0.098 21.208,-11.311 43.707,-18.834 67.401,-22.789 1.214,-0.202 1.57,-0.612 1.519,-1.842 -0.779,-18.687 -1.202,-37.393 -2.317,-56.059 -2.203,-36.883 -16.94,-67.996 -44.068,-93.149 -6.971,-6.462 -14.661,-11.98 -22.849,-16.811 -1.081,-0.639 -1.888,-0.64 -2.961,0.005 -34.461,20.748 -56.06,50.707 -64.622,90.043 -2.411,11.076 -2.674,22.338 -3.052,33.598 -0.461,13.699 -0.997,27.396 -1.493,41.094 -0.032,0.885 -0.004,1.772 -0.004,2.704" /></g><g
           transform="translate(248.9541,439.208)"
           id="g44"><path
             id="path46"
             style="fill:#ed1c24;fill-opacity:1;fill-rule:evenodd;stroke:none"
             d="m 0,0 c 7.719,2.035 15.288,3.879 22.768,6.035 12.86,3.708 25.211,8.75 37.143,14.807 1.161,0.59 2.008,0.581 3.168,-0.004 18.462,-9.326 37.836,-16.041 58.114,-20.137 0.376,-0.076 0.746,-0.182 1.112,-0.299 0.173,-0.054 0.329,-0.167 0.544,-0.28 -0.241,-6.716 -0.458,-13.427 -0.725,-20.138 -0.32,-8.062 -0.793,-16.122 -1.005,-24.188 -0.934,-35.56 -13.919,-65.882 -39.689,-90.449 -5.709,-5.444 -12.431,-9.823 -18.665,-14.718 -0.969,-0.761 -1.726,-0.65 -2.727,0.008 C 30.456,-129.966 11.807,-103.04 4.185,-68.475 1.937,-58.283 1.617,-47.922 1.236,-37.561 0.805,-25.783 0.409,-14.003 0.003,-2.224 -0.023,-1.459 0,-0.693 0,0" /></g></g></g><text
       id="text50"
       style="font-variant:normal;font-weight:normal;font-stretch:normal;font-size:42px;font-family:'Super Comic';-inkscape-font-specification:SuperComic;writing-mode:lr-tb;fill:#231f20;fill-opacity:1;fill-rule:nonzero;stroke:none"
       transform="matrix(1,0,0,-1,186.9131,210.8027)"><tspan
         id="tspan48"
         y="0"
         x="0 38.912998 78.027603 118.4778 159.93179 199.97459 224.7126">PERAZIM</tspan></text>
<text
       id="text54"
       style="font-variant:normal;font-weight:normal;font-stretch:normal;font-size:27px;font-family:'Super Comic';-inkscape-font-specification:SuperComic;writing-mode:lr-tb;fill:#ed1c24;fill-opacity:1;fill-rule:nonzero;stroke:none"
       transform="matrix(1,0,0,-1,184.4668,180.8027)"><tspan
         id="tspan52"
         y="0"
         x="0 36.0774 70.7724 109.3554 145.8405 182.38229 207.93781 243.89909">SECURITY</tspan></text>
<text
       id="text58"
       style="font-variant:normal;font-weight:normal;font-stretch:normal;font-size:102.84320068px;font-family:'Ninja and Samurai';-inkscape-font-specification:NinjaandSamurai;writing-mode:lr-tb;fill:#ffffff;fill-opacity:1;fill-rule:nonzero;stroke:none"
       transform="matrix(1,0,0,-1,268.751,350.1895)"><tspan
         id="tspan56"
         y="0"
         x="0">B</tspan></text>
</g></svg>